PathFileType	4	(X/Y/Z)	/Users/itak/Documents/Research/Walk-IL/dataset/trc/00336_00011.trc
DataRate	CameraRate	NumFrames	NumMarkers	Units	OrigDataRate	OrigDataStartFrame	OrigNumFrames
100.000000	100.000000	4	55	mm	100.000000	57	458
Frame#	Time	RPSI			LPSI			L3			STRN			T10			C7			CLAV			RBAK			LBAK			LSHO			LUPA			LAEL			LAOL			LWTS			LWPS			LFRA			LIFD			LHPS			LHTS			RSHO			RUPA			RAEL			RAOL			RWTS			RWPS			RFRA			RIFD			RHTS			RHPS			RBHD			LFHD			RFHD			LBHD			LHIP			RHIP			RASI			LASI			LKNE			LTHI			LANK			LTOE			LMT1			LMT5			LHEE			RKNE			RTHI			RANK			RTIP			RTOE			RMT5			RHEE			LTIP			RMT1			*53			*54			
		X1	Y1	Z1	X2	Y2	Z2	X3	Y3	Z3	X4	Y4	Z4	X5	Y5	Z5	X6	Y6	Z6	X7	Y7	Z7	X8	Y8	Z8	X9	Y9	Z9	X10	Y10	Z10	X11	Y11	Z11	X12	Y12	Z12	X13	Y13	Z13	X14	Y14	Z14	X15	Y15	Z15	X16	Y16	Z16	X17	Y17	Z17	X18	Y18	Z18	X19	Y19	Z19	X20	Y20	Z20	X21	Y21	Z21	X22	Y22	Z22	X23	Y23	Z23	X24	Y24	Z24	X25	Y25	Z25	X26	Y26	Z26	X27	Y27	Z27	X28	Y28	Z28	X29	Y29	Z29	X30	Y30	Z30	X31	Y31	Z31	X32	Y32	Z32	X33	Y33	Z33	X34	Y34	Z34	X35	Y35	Z35	X36	Y36	Z36	X37	Y37	Z37	X38	Y38	Z38	X39	Y39	Z39	X40	Y40	Z40	X41	Y41	Z41	X42	Y42	Z42	X43	Y43	Z43	X44	Y44	Z44	X45	Y45	Z45	X46	Y46	Z46	X47	Y47	Z47	X48	Y48	Z48	X49	Y49	Z49	X50	Y50	Z50	X51	Y51	Z51	X52	Y52	Z52	X53	Y53	Z53	X54	Y54	Z54	X55	Y55	Z55	

58	0.5700000000000001	877.4588012695312	974.2338256835938	140.2919616699219	874.081787109375	973.817626953125	11.84287929534912	874.5272827148438	1026.3154296875	79.99884796142578	1095.132080078125	1208.516479492188	60.05076217651367	857.4457397460938	1146.252319335938	68.29860687255859	897.2373046875	1394.24365234375	48.10496139526367	1052.424682617188	1333.861694335938	54.2015266418457	845.8248291015625	1257.98486328125	119.0793228149414	887.2109375	1355.556762695312	-53.35571670532227	973.6696166992188	1370.679931640625	-109.1291351318359	959.1987915039062	1249.446044921875	-175.57470703125	985.2095336914062	1045.362060546875	-181.7941741943359	916.6996459960938	1032.081176757812	-132.7347106933594	1081.790283203125	807.010986328125	-116.2625350952148	1052.301513671875	793.1220703125	-176.9322357177734	1004.8388671875	941.396240234375	-183.6587371826172	1090.049682617188	646.4757690429688	-106.0664138793945	1050.674560546875	722.934326171875	-169.4263610839844	1098.10791015625	728.4879760742188	-127.2406997680664	956.57861328125	1381.466430664062	211.1361236572266	945.8125610351562	1316.390258789062	275.6871948242188	960.443115234375	1049.8134765625	316.3399353027344	920.1268920898438	1039.16796875	231.0584716796875	1077.369262695312	824.6224975585938	277.8885803222656	1041.273681640625	809.6838989257812	343.6542358398438	986.7032470703125	982.9633178710938	326.7089538574219	1097.833740234375	651.6071166992188	292.7450561523438	1108.793823242188	724.0997314453125	295.8600463867188	1058.46044921875	725.9048461914062	342.6600646972656	929.4261474609375	1590.33154296875	129.6154632568359	1096.978271484375	1620.096069335938	9.817646980285645	1088.162963867188	1619.668823242188	110.333366394043	915.3087768554688	1583.196533203125	-13.87821102142334	953.6774291992188	911.8460083007812	-93.64242553710938	956.2105102539062	916.2965698242188	247.6173095703125	1060.773315429688	943.105712890625	203.3451538085938	1079.137451171875	935.7453002929688	-37.86825942993164	974.7234497070312	451.522705078125	-66.00878143310547	983.1931762695312	592.3413696289062	-79.42994689941406	873.7671508789062	41.59964752197266	-36.41493988037109	1078.580200195312	31.1091136932373	23.63127899169922	1019.513366699219	29.84485054016113	75.06498718261719	998.5242309570312	35.8647346496582	-49.00501251220703	838.2706298828125	36.64457321166992	30.1903018951416	959.6216430664062	451.6591186523438	213.1939239501953	1024.234985351562	703.9251708984375	235.8451385498047	889.0302124023438	41.52091598510742	175.2361450195312	959.1758422851562	333.9729309082031	201.9672241210938	1078.983520507812	31.92471885681152	112.871955871582	990.0003051757812	27.670654296875	188.4741821289062	836.4434814453125	44.82591247558594	129.408203125	921.7367553710938	239.0016174316406	-62.74986267089844	1009.526611328125	20.90635871887207	61.71051406860352	nan	nan	nan	nan	nan	nan	
59	0.58	877.3875122070312	974.2437133789062	140.122802734375	873.9146118164062	973.8204956054688	11.59023094177246	874.4536743164062	1026.281860351562	79.8741455078125	1094.989501953125	1208.531982421875	59.90671920776367	857.2062377929688	1146.194213867188	68.06130218505859	897.0335693359375	1394.186889648438	47.90142059326172	1052.278930664062	1333.852905273438	54.08951187133789	845.6485595703125	1257.893676757812	118.8580093383789	887.0841674804688	1355.51904296875	-53.52016830444336	973.5231323242188	1370.676635742188	-109.2869567871094	959.1455688476562	1249.47607421875	-175.7502746582031	985.2274169921875	1045.406494140625	-182.0816802978516	916.7048950195312	1032.03955078125	-133.0429992675781	1082.075561523438	807.1426391601562	-116.6973495483398	1052.548583984375	793.1987915039062	-177.3129425048828	1004.961547851562	941.4630737304688	-183.9456024169922	1090.424194335938	646.5980834960938	-106.5642547607422	1050.944946289062	722.9619750976562	-169.8363800048828	1098.319458007812	728.5311889648438	-127.6265563964844	956.2301635742188	1381.392333984375	210.9795074462891	945.631591796875	1316.2900390625	275.56005859375	960.0833740234375	1049.626220703125	315.8778381347656	919.8257446289062	1039.121215820312	230.5489196777344	1076.98974609375	824.427490234375	277.1636352539062	1040.899169921875	809.460205078125	342.8978271484375	986.3264770507812	982.7802734375	326.1183166503906	1097.42138671875	651.4324340820312	291.7308044433594	1108.382690429688	723.8699951171875	295.0228271484375	1058.02734375	725.7264404296875	341.7792358398438	928.97998046875	1590.292602539062	129.4556121826172	1096.594116210938	1620.121948242188	9.70623779296875	1087.758056640625	1619.660278320312	110.1942825317383	914.9009399414062	1583.191284179688	-14.04564571380615	953.7039184570312	911.8132934570312	-93.69856262207031	956.2310180664062	916.3153076171875	247.4874420166016	1060.713134765625	943.151611328125	203.2203063964844	1079.1259765625	935.629150390625	-37.97470855712891	974.4212036132812	451.4930725097656	-66.09133911132812	983.0151977539062	592.238037109375	-79.41679382324219	873.7518310546875	41.58177947998047	-36.42468643188477	1078.556640625	31.11430358886719	23.63891410827637	1019.511108398438	29.84253692626953	75.06529235839844	998.5205688476562	35.86684417724609	-49.0073127746582	838.2252197265625	36.61531448364258	30.1773567199707	959.477294921875	451.6376342773438	213.1287994384766	1024.644897460938	703.9228515625	235.3154296875	889.03564453125	41.51720809936523	175.2274169921875	959.0630493164062	334.0070495605469	201.927490234375	1078.97998046875	31.92881965637207	112.8730621337891	989.99609375	27.67914390563965	188.4776611328125	836.4241333007812	44.8051872253418	129.3752136230469	921.5172119140625	238.9839324951172	-62.78022003173828	1009.519653320312	20.90416526794434	61.70521545410156	nan	nan	nan	nan	nan	nan	
60	0.59	877.313720703125	974.252197265625	139.9468078613281	873.7608032226562	973.8321533203125	11.33523082733154	874.4122924804688	1026.2470703125	79.74545288085938	1094.847778320312	1208.5498046875	59.74953842163086	856.94677734375	1146.140991210938	67.82108306884766	896.8314819335938	1394.12939453125	47.70366668701172	1052.1357421875	1333.8408203125	53.97361373901367	845.5155639648438	1257.801635742188	118.6610107421875	886.9732666015625	1355.477661132812	-53.67902755737305	973.3687133789062	1370.672607421875	-109.4463195800781	959.0960693359375	1249.505249023438	-175.9335327148438	985.25634765625	1045.449584960938	-182.3837432861328	916.7028198242188	1032.009155273438	-133.3601989746094	1082.291870117188	807.2279052734375	-117.0860214233398	1052.750366210938	793.2843017578125	-177.7040863037109	1005.080200195312	941.5165405273438	-184.2301635742188	1090.728637695312	646.6882934570312	-107.0751495361328	1051.161743164062	723.00048828125	-170.2557525634766	1098.488647460938	728.5623168945312	-128.0038757324219	955.8784790039062	1381.318969726562	210.8194427490234	945.47998046875	1316.204956054688	275.4600219726562	959.7290649414062	1049.425048828125	315.4271850585938	919.5626831054688	1039.072509765625	230.0622711181641	1076.609619140625	824.2430419921875	276.4303588867188	1040.488525390625	809.2499389648438	342.1505432128906	985.9525146484375	982.6028442382812	325.5391845703125	1096.95947265625	651.2633056640625	290.760498046875	1107.96435546875	723.6478271484375	294.1814880371094	1057.574462890625	725.5272827148438	340.9082946777344	928.5310668945312	1590.256469726562	129.3049774169922	1096.209350585938	1620.150146484375	9.58775806427002	1087.3349609375	1619.641235351562	110.078483581543	914.498291015625	1583.19482421875	-14.20678234100342	953.748046875	911.7785034179688	-93.76247406005859	956.2611083984375	916.3377075195312	247.3475341796875	1060.659912109375	943.1917114257812	203.0881195068359	1079.115478515625	935.5100708007812	-38.07198715209961	974.115478515625	451.4680786132812	-66.18154144287109	982.8545532226562	592.1536254882812	-79.42466735839844	873.736083984375	41.56343841552734	-36.43628311157227	1078.53125	31.12120246887207	23.64592552185059	1019.509216308594	29.83892250061035	75.0654296875	998.5169677734375	35.86884307861328	-49.00885391235352	838.1796875	36.58734512329102	30.16195297241211	959.3370971679688	451.6057739257812	213.062744140625	1025.0322265625	703.900390625	234.8157958984375	889.0424194335938	41.51397705078125	175.2201232910156	958.9391479492188	334.0343017578125	201.8858337402344	1078.976318359375	31.93156051635742	112.8731307983398	989.9918823242188	27.6876163482666	188.4794311523438	836.4060668945312	44.78381729125977	129.3413238525391	921.2918701171875	238.9682312011719	-62.81874084472656	1009.511901855469	20.90136528015137	61.70110321044922	nan	nan	nan	nan	nan	nan	
61	0.6	877.238037109375	974.25927734375	139.7659759521484	873.644775390625	973.8494873046875	11.09236812591553	874.398193359375	1026.207641601562	79.60608673095703	1094.707397460938	1208.567749023438	59.58588409423828	856.6867065429688	1146.090454101562	67.58088684082031	896.631591796875	1394.070556640625	47.51436996459961	1051.985229492188	1333.823486328125	53.85343170166016	845.422119140625	1257.70849609375	118.4851837158203	886.8676147460938	1355.431518554688	-53.83330535888672	973.2074584960938	1370.668701171875	-109.606559753418	959.0447998046875	1249.5302734375	-176.1219482421875	985.2931518554688	1045.488525390625	-182.6978149414062	916.6968994140625	1031.98876953125	-133.6816558837891	1082.43310546875	807.2626342773438	-117.4273834228516	1052.908203125	793.3751220703125	-178.1121368408203	1005.193176269531	941.5599975585938	-184.5224456787109	1090.970703125	646.7499389648438	-107.6048355102539	1051.329467773438	723.0526733398438	-170.6948699951172	1098.633544921875	728.59521484375	-128.398193359375	955.5342407226562	1381.247314453125	210.6573486328125	945.3218383789062	1316.126342773438	275.3595581054688	959.3866577148438	1049.210327148438	314.9930419921875	919.3316040039062	1039.019897460938	229.593505859375	1076.223999023438	824.0685424804688	275.7005615234375	1040.036865234375	809.0470581054688	341.4169921875	985.576416015625	982.4271240234375	324.9675598144531	1096.460571289062	651.1058349609375	289.8277893066406	1107.538696289062	723.44091796875	293.3318176269531	1057.1123046875	725.307861328125	340.0598449707031	928.0902709960938	1590.224609375	129.1643829345703	1095.819946289062	1620.173461914062	9.468399047851562	1086.894287109375	1619.609375	109.9869537353516	914.0994873046875	1583.206176757812	-14.36274528503418	953.8057250976562	911.7429809570312	-93.83810424804688	956.299560546875	916.36328125	247.1986389160156	1060.6142578125	943.2229614257812	202.9531097412109	1079.106811523438	935.3889770507812	-38.15737915039062	973.8164672851562	451.4510803222656	-66.27802276611328	982.7131958007812	592.0908813476562	-79.45956420898438	873.7208251953125	41.54375839233398	-36.44960403442383	1078.505249023438	31.12982559204102	23.6519947052002	1019.507629394531	29.83379364013672	75.06493377685547	998.5136108398438	35.87054061889648	-49.00944900512695	838.135986328125	36.56089782714844	30.14446258544922	959.2002563476562	451.5638732910156	212.9949340820312	1025.389038085938	703.8598022460938	234.3509216308594	889.04931640625	41.51179122924805	175.2129821777344	958.802490234375	334.0534362792969	201.8416900634766	1078.973266601562	31.93287467956543	112.8718719482422	989.9887084960938	27.69582748413086	188.4777374267578	836.3899536132812	44.76286315917969	129.3072052001953	921.06640625	238.9561614990234	-62.86572265625	1009.503540039062	20.89749145507812	61.69742202758789	nan	nan	nan	nan	nan	nan	
